<svg width="140" height="58" viewBox="0 0 140 58" fill="none" xmlns="http://www.w3.org/2000/svg">
<rect x="3.94336" y="11.5999" width="37.4648" height="34.8" fill="white"/>
<path fill-rule="evenodd" clip-rule="evenodd" d="M84.6261 19.3801C85.1898 19.8797 85.9257 20.1516 86.6857 20.1409C87.4458 20.1516 88.1819 19.8797 88.7455 19.3801C89.0334 19.1341 89.2615 18.8284 89.4134 18.485C89.5653 18.1417 89.6368 17.7695 89.6232 17.3955C89.6299 17.0225 89.5551 16.6523 89.4037 16.31C89.2523 15.9677 89.0279 15.6611 88.7455 15.4109C88.1774 14.918 87.4446 14.6458 86.6857 14.6458C85.9268 14.6458 85.1942 14.918 84.6261 15.4109C84.3437 15.6611 84.1191 15.9677 83.9677 16.31C83.8163 16.6523 83.7415 17.0225 83.7482 17.3955C83.7346 17.7695 83.8064 18.1417 83.9582 18.485C84.1101 18.8284 84.3383 19.1341 84.6261 19.3801ZM84.4574 23.647V43.2947H88.9143V23.647H84.4574ZM63.0843 43.196C64.9448 43.7503 66.8796 44.029 68.8242 44.0229C70.8526 44.1279 72.88 43.8006 74.7668 43.0637C76.2308 42.4525 77.4848 41.4422 78.3795 40.1529C79.2151 38.8451 79.6488 37.3295 79.6288 35.7868C79.6651 34.9238 79.5222 34.0625 79.2088 33.2552C78.8954 32.4478 78.4179 31.7112 77.8054 31.0899C76.1662 29.6388 74.1809 28.6151 72.0319 28.113L68.9592 27.2199C67.8015 26.9312 66.6717 26.5438 65.5828 26.0622C64.9205 25.7741 64.3492 25.3172 63.9284 24.7391C63.5846 24.2545 63.4073 23.6753 63.422 23.0853C63.3867 22.2827 63.6507 21.4949 64.1648 20.8691C64.6842 20.2118 65.3884 19.7175 66.1907 19.4468C67.1592 19.1299 68.1746 18.9733 69.1956 18.9837C70.1156 18.9845 71.0327 19.0843 71.9305 19.2814C72.7972 19.4629 73.6368 19.7519 74.429 20.1414C75.1703 20.4768 75.8539 20.9231 76.455 21.4645L78.7509 18.1568C77.5549 17.1825 76.1796 16.4414 74.6992 15.9737C72.9877 15.4296 71.1974 15.1615 69.3982 15.1799C68.0037 15.1578 66.6142 15.3475 65.279 15.7422C64.0577 16.0814 62.9124 16.6424 61.9026 17.3961C61.0031 18.0956 60.2663 18.9752 59.7417 19.9761C59.2355 21.0073 58.9813 22.1397 58.9989 23.2838C58.9613 25.012 59.6157 26.6861 60.8221 27.9476C62.483 29.4049 64.4918 30.4287 66.6633 30.9245L69.6007 31.7514C71.1518 32.0888 72.6129 32.7424 73.8889 33.6699C74.3296 34.0128 74.6759 34.4583 74.8962 34.9658C75.1164 35.4732 75.2038 36.0266 75.1501 36.5755C75.0964 37.1244 74.9035 37.6515 74.5889 38.1088C74.2743 38.5661 73.848 38.939 73.3487 39.1937C71.9821 39.9504 70.4264 40.3169 68.858 40.2521C67.8365 40.2403 66.8185 40.1296 65.8192 39.9214C64.8293 39.7067 63.8668 39.3849 62.9493 38.9622C62.0983 38.5833 61.3032 38.0938 60.5858 37.5068L58.3574 40.8145C59.7565 41.9072 61.3631 42.7168 63.0843 43.196ZM103.872 52.2244C102.535 52.2197 101.202 52.0979 99.8877 51.8605C98.5964 51.5952 97.3471 51.1613 96.1735 50.5706L97.2878 46.9652C98.2929 47.455 99.3603 47.8109 100.462 48.0236C101.503 48.2568 102.567 48.3789 103.635 48.3875C105.546 48.509 107.435 47.9314 108.936 46.7667C109.544 46.2181 110.022 45.5461 110.337 44.7977C110.652 44.0492 110.796 43.2424 110.76 42.4336V40.0911C110.143 40.9505 109.351 41.6813 108.43 42.2351C106.919 43.0725 105.202 43.4846 103.467 43.426C101.609 43.4696 99.7754 43.0119 98.1657 42.1029C96.7226 41.2 95.5559 39.9312 94.7893 38.4313C93.9237 36.8331 93.4824 35.0473 93.5062 33.2382C93.5049 31.8711 93.7567 30.5151 94.2491 29.2359C94.7071 28.0115 95.407 26.8875 96.3087 25.9282C97.2668 24.9782 98.4168 24.2347 99.6851 23.7452C100.995 23.233 102.394 22.9747 103.804 22.9844C105.539 22.9258 107.257 23.3378 108.768 24.1752C109.696 24.7645 110.487 25.5314 111.097 26.4253V23.712H115.25V41.5737C115.347 43.0054 115.152 44.4417 114.677 45.7989C114.202 47.1561 113.455 48.4071 112.482 49.479C111.33 50.5122 109.966 51.2918 108.48 51.7654C106.995 52.2389 105.424 52.3954 103.872 52.2244ZM104.142 39.6551C105.32 39.6979 106.488 39.4234 107.518 38.8613C108.477 38.3401 109.263 37.5593 109.781 36.6121C110.34 35.5976 110.62 34.4573 110.591 33.3044C110.608 32.1528 110.329 31.0155 109.781 29.9967C109.289 28.9424 108.475 28.0639 107.451 27.4829C106.435 26.9825 105.313 26.722 104.176 26.722C103.038 26.722 101.917 26.9825 100.901 27.4829C99.9415 28.0041 99.1562 28.7849 98.6384 29.7321C98.09 30.7508 97.8114 31.8881 97.8281 33.0398C97.7993 34.1927 98.0786 35.3329 98.6384 36.3475C99.1562 37.2946 99.9415 38.0755 100.901 38.5967C101.845 39.2174 102.94 39.5826 104.074 39.6551H104.142ZM121.125 23.6467V43.2944L125.515 43.3606V32.3129C125.497 31.3669 125.73 30.4327 126.19 29.6006C126.616 28.8422 127.247 28.2129 128.013 27.7814C128.827 27.3347 129.747 27.1066 130.681 27.1199C131.336 27.0816 131.992 27.1764 132.608 27.3984C133.223 27.6204 133.786 27.9648 134.26 28.4098C134.687 28.8498 135.021 29.3689 135.242 29.9369C135.462 30.5049 135.564 31.1103 135.543 31.7175V43.2944H139.999V30.3614C139.989 29.1522 139.688 27.9625 139.122 26.8883C138.499 25.7362 137.565 24.7747 136.42 24.1099C135.028 23.3575 133.452 22.9915 131.862 23.0514C130.697 23.0563 129.546 23.3043 128.486 23.7791C127.327 24.3176 126.327 25.1374 125.582 26.1606V23.6467H121.125Z" fill="white"/>
<path fill-rule="evenodd" clip-rule="evenodd" d="M0 54.1768V3.8667L46.6959 8.43133V49.6122L0 54.1768ZM9.75789 44.1214L13.9446 43.7576V23.9775H9.75789V44.1214ZM13.0502 20.3636C13.3807 20.25 13.6848 20.073 13.9446 19.8429H13.7758C14.0789 19.6187 14.3248 19.3288 14.4946 18.996C14.6645 18.6632 14.7536 18.2965 14.7549 17.9244C14.7689 17.1633 14.4781 16.4271 13.9446 15.8736C13.4374 15.3485 12.7543 15.0198 12.02 14.9475C11.6745 14.9081 11.3244 14.9408 10.9927 15.0434C10.661 15.146 10.3552 15.3163 10.0955 15.543C9.82247 15.7901 9.6084 16.093 9.46835 16.4302C9.32831 16.7675 9.26575 17.1309 9.28515 17.4945C9.25663 18.2449 9.5252 18.9771 10.0349 19.5381C10.5445 20.099 11.2559 20.4453 12.02 20.5045C12.3696 20.5251 12.7198 20.4772 13.0502 20.3636ZM34.8784 41.9052L38.6262 41.5414L38.5586 17.1968L34.4057 16.8329V26.756C33.7359 26.0835 32.9747 25.5048 32.1436 25.036C30.7722 24.3147 29.2431 23.9289 27.6867 23.9114C26.3856 23.831 25.0825 24.0343 23.8713 24.5068C22.7263 24.9472 21.6986 25.6371 20.8662 26.5244C19.9935 27.4871 19.3274 28.612 18.9079 29.8321C18.4545 31.1081 18.2261 32.4504 18.2325 33.8014C18.1978 35.5826 18.6156 37.3444 19.4482 38.9283C20.1893 40.3522 21.3711 41.51 22.8246 42.236C24.3279 43.007 26.0402 43.2962 27.7203 43.0629C29.4353 42.965 31.097 42.4415 32.5487 41.5414C33.4416 40.9562 34.2289 40.2296 34.8784 39.3914V41.9052ZM28.2953 27.6166C29.3753 27.6124 30.4405 27.8619 31.4016 28.3443C32.3012 28.8381 33.039 29.5722 33.5288 30.4612C34.0622 31.3887 34.3304 32.44 34.3053 33.5043C34.3207 34.5676 34.0531 35.6163 33.5288 36.5474C33.0289 37.429 32.2936 38.1609 31.4016 38.6643C30.4585 39.216 29.3923 39.5339 28.2953 39.5905C27.2415 39.6805 26.1819 39.498 25.2227 39.0612C24.3154 38.6235 23.5714 37.9178 23.0955 37.0436C22.5319 36.0317 22.2633 34.8874 22.319 33.7359C22.2799 32.5859 22.5475 31.4458 23.0955 30.4282C23.5561 29.5185 24.3014 28.7767 25.2227 28.3112C26.1606 27.8032 27.2251 27.5626 28.2953 27.6166Z" fill="url(#paint0_linear_113_5141)"/>
<defs>
<linearGradient id="paint0_linear_113_5141" x1="-14.7887" y1="29" x2="46.8283" y2="28.0874" gradientUnits="userSpaceOnUse">
<stop stop-color="#4EC5EB"/>
<stop offset="0.622443" stop-color="#2461FF"/>
<stop offset="0.991896" stop-color="#4732D9"/>
</linearGradient>
</defs>
</svg>
