<?xml version="1.0" standalone="no"?>
<!DOCTYPE svg PUBLIC "-//W3C//DTD SVG 20010904//EN"
 "http://www.w3.org/TR/2001/REC-SVG-20010904/DTD/svg10.dtd">
<svg version="1.0" xmlns="http://www.w3.org/2000/svg"
 width="700.000000pt" height="700.000000pt" viewBox="0 0 700.000000 700.000000"
 preserveAspectRatio="xMidYMid meet">
<metadata>
Created by potrace 1.14, written by Peter Selinger 2001-2017
</metadata>
<g transform="translate(0.000000,700.000000) scale(0.100000,-0.100000)"
fill="#000000" stroke="none">
<path d="M1575 6988 c-557 -56 -1068 -389 -1341 -874 l-34 -61 -19 -2514 -19
-2513 38 -77 c159 -315 447 -600 765 -758 203 -101 404 -158 629 -180 151 -15
3684 -15 3827 0 224 22 408 76 614 179 183 91 303 178 450 325 147 147 234
267 325 450 103 206 157 390 179 614 15 142 15 3699 1 3842 -31 302 -143 601
-318 849 -86 122 -280 316 -402 402 -248 175 -547 287 -849 318 -129 13 -3715
11 -3846 -2z m629 -1777 c126 -62 197 -175 195 -314 -1 -88 -11 -119 -69 -198
-63 -87 -117 -114 -230 -114 -71 0 -94 4 -142 27 -127 59 -198 164 -206 303
-5 93 6 143 47 207 56 87 146 130 263 125 62 -3 89 -10 142 -36z m2810 -211
c121 -11 222 -22 224 -25 3 -2 7 -659 10 -1459 l5 -1455 -34 -5 c-50 -8 -347
-36 -386 -36 l-33 0 0 145 0 146 -45 -51 c-146 -164 -319 -274 -529 -335 -139
-40 -217 -49 -406 -49 -149 0 -187 3 -253 22 -178 49 -310 125 -437 252 -134
135 -218 288 -278 507 -24 92 -26 112 -26 323 -1 211 1 231 26 330 99 391 308
655 622 785 164 68 327 91 526 76 274 -22 503 -115 681 -279 31 -29 60 -52 63
-52 3 0 6 266 6 590 l0 590 23 0 c12 0 121 -9 241 -20z m-2704 -2020 c0 -945
-3 -1190 -12 -1190 -7 0 -110 -9 -228 -20 -118 -11 -227 -20 -242 -20 l-28 0
0 1203 c0 662 3 1207 7 1210 3 4 118 7 255 7 l248 0 0 -1190z"/>
<path d="M3849 3716 c-147 -31 -302 -120 -381 -219 -54 -68 -113 -193 -138
-291 -28 -110 -28 -321 0 -430 60 -237 220 -402 450 -463 93 -25 288 -22 395
6 216 56 391 191 479 371 56 115 76 202 76 340 0 120 -17 201 -60 296 -89 196
-237 321 -447 375 -102 26 -285 33 -374 15z"/>
</g>
</svg>
